HIERARCHY
ROOT Hips
{
	OFFSET 0.000000 0.000000 0.000000
	CHANNELS 6 Xposition Yposition Zposition Zrotation Xrotation Yrotation
	JOINT Spine
	{
		OFFSET 0.000000 -0.000012 73.129562
		CHANNELS 6 Xposition Yposition Zposition Zrotation Xrotation Yrotation
		JOINT Spine1
		{
			OFFSET 0.000000 -0.000027 165.477310
			CHANNELS 6 Xposition Yposition Zposition Zrotation Xrotation Yrotation
			JOINT Neck
			{
				OFFSET 0.000000 -0.000030 183.313782
				CHANNELS 6 Xposition Yposition Zposition Zrotation Xrotation Yrotation
				JOINT Head
				{
					OFFSET 0.000000 -17.836500 138.232727
					CHANNELS 6 Xposition Yposition Zposition Zrotation Xrotation Yrotation
					End Site
					{
						OFFSET 0.000000 -0.000029 178.364807
					}
				}
			}
			JOINT LeftShoulder
			{
				OFFSET 35.598560 3.890319 149.571350
				CHANNELS 6 Xposition Yposition Zposition Zrotation Xrotation Yrotation
				JOINT LeftArm
				{
					OFFSET 103.175430 0.000000 0.000000
					CHANNELS 6 Xposition Yposition Zposition Zrotation Xrotation Yrotation
					JOINT LeftForeArm
					{
						OFFSET 267.561951 0.000000 0.000000
						CHANNELS 6 Xposition Yposition Zposition Zrotation Xrotation Yrotation
						JOINT LeftHand
						{
							OFFSET 239.300110 0.000000 0.000000
							CHANNELS 6 Xposition Yposition Zposition Zrotation Xrotation Yrotation
							End Site
							{
								OFFSET 133.773621 0.000000 0.000000
							}
						}
					}
				}
			}
			JOINT RightShoulder
			{
				OFFSET -35.671310 3.890319 149.571350
				CHANNELS 6 Xposition Yposition Zposition Zrotation Xrotation Yrotation
				JOINT RightArm
				{
					OFFSET -103.175430 0.000000 0.000000
					CHANNELS 6 Xposition Yposition Zposition Zrotation Xrotation Yrotation
					JOINT RightForeArm
					{
						OFFSET -267.561951 0.000000 0.000000
						CHANNELS 6 Xposition Yposition Zposition Zrotation Xrotation Yrotation
						JOINT RightHand
						{
							OFFSET -239.300110 0.000000 0.000000
							CHANNELS 6 Xposition Yposition Zposition Zrotation Xrotation Yrotation
							End Site
							{
								OFFSET -133.773621 0.000000 0.000000
							}
						}
					}
				}
			}
		}
	}
	JOINT LeftUpLeg
	{
		OFFSET 89.182388 0.000000 0.000000
		CHANNELS 6 Xposition Yposition Zposition Zrotation Xrotation Yrotation
		JOINT LeftLeg
		{
			OFFSET 0.000000 0.000076 -464.167633
			CHANNELS 6 Xposition Yposition Zposition Zrotation Xrotation Yrotation
			JOINT LeftFoot
			{
				OFFSET 0.000000 0.000061 -372.878387
				CHANNELS 6 Xposition Yposition Zposition Zrotation Xrotation Yrotation
				JOINT LeftToeBase
				{
					OFFSET 0.000000 -133.773575 -57.968567
					CHANNELS 6 Xposition Yposition Zposition Zrotation Xrotation Yrotation
					End Site
					{
						OFFSET 0.000000 -35.672958 0.000000
					}
				}
			}
		}
	}
	JOINT RightUpLeg
	{
		OFFSET -89.182388 0.000000 0.000000
		CHANNELS 6 Xposition Yposition Zposition Zrotation Xrotation Yrotation
		JOINT RightLeg
		{
			OFFSET 0.000000 0.000076 -464.167633
			CHANNELS 6 Xposition Yposition Zposition Zrotation Xrotation Yrotation
			JOINT RightFoot
			{
				OFFSET 0.000000 0.000061 -372.878387
				CHANNELS 6 Xposition Yposition Zposition Zrotation Xrotation Yrotation
				JOINT RightToeBase
				{
					OFFSET 0.000000 -133.773575 -57.968567
					CHANNELS 6 Xposition Yposition Zposition Zrotation Xrotation Yrotation
					End Site
					{
						OFFSET 0.000000 -35.672958 0.000000
					}
				}
			}
		}
	}
}
MOTION
Frames: 7
Frame Time: 0.041667
1.617227 110.614723 738.814453 -2.361168 4.785630 -3.789042 -0.000000 -0.000008 73.129593 -4.786395 -9.661750 -4.799941 -0.000002 -0.000041 165.477432 -1.561208 6.815417 1.696161 -0.000014 -0.000037 183.313736 1.227227 8.062640 -17.999543 -0.000040 -17.836536 138.232697 2.806915 9.200125 8.709406 35.598557 3.890308 149.571289 -18.004657 3.169284 1.294079 103.175423 -0.000027 -0.000016 -67.539260 42.520246 53.644497 267.561920 0.000057 -0.000024 -54.419139 36.260597 -80.311939 239.300156 0.000040 0.000270 -10.739450 -10.890799 -34.304325 -35.671326 3.890306 149.571274 11.610119 -7.768239 2.694291 -103.175423 0.000024 0.000104 44.096961 16.299982 -32.214314 -267.562012 -0.000008 0.000057 -105.103422 53.601074 62.758360 -239.300140 0.000035 0.000004 101.036967 94.970884 -169.438743 89.182388 0.000002 0.000019 -13.053596 -12.952122 -32.394467 0.000031 0.000079 -464.167603 22.818497 40.493210 20.574762 -0.000004 0.000018 -372.878387 24.015748 -13.411740 9.339879 -0.000025 -133.773560 -57.968563 -0.000001 -0.000002 0.000002 -89.182396 -0.000006 -0.000034 4.117527 -20.237270 40.205956 0.000025 0.000098 -464.167755 5.069398 38.603338 -37.679985 0.000004 0.000069 -372.878387 -34.842301 -21.597188 -7.233902 -0.000020 -133.773544 -57.968563 -0.000004 -0.000000 0.000001 
1.520865 110.752701 738.683228 -2.386237 4.791517 -3.876794 -0.000004 -0.000033 73.129601 -4.821741 -9.615399 -4.820174 0.000003 -0.000033 165.477386 -1.568522 6.809977 1.620909 0.000001 -0.000056 183.313828 1.226172 8.048854 -18.046111 -0.000042 -17.836504 138.232712 2.822433 9.226733 8.979846 35.598583 3.890311 149.571457 -17.980464 3.219581 1.288332 103.175423 -0.000029 0.000094 -67.415927 42.356189 53.622026 267.561951 -0.000042 -0.000023 -54.496345 36.345315 -80.271498 239.300125 0.000012 0.000049 -10.720581 -10.846049 -34.341846 -35.671314 3.890309 149.571381 11.497860 -7.655697 2.578965 -103.175438 -0.000004 0.000227 44.888345 16.836799 -32.760224 -267.561981 -0.000026 -0.000090 -104.788714 55.196596 62.280547 -239.300095 0.000071 -0.000014 102.739767 94.962675 -170.346735 89.182388 -0.000018 0.000015 -13.027246 -12.971783 -32.315944 0.000001 0.000052 -464.167694 22.797505 40.481923 20.595452 -0.000024 0.000045 -372.878326 24.040961 -13.379218 9.323621 -0.000036 -133.773575 -57.968563 -0.000001 -0.000001 0.000000 -89.182388 -0.000012 -0.000011 4.185788 -20.302176 40.327599 0.000017 0.000089 -464.167664 5.303308 38.612456 -37.844630 -0.000049 0.000092 -372.878479 -34.970961 -21.628492 -7.272362 -0.000007 -133.773560 -57.968563 -0.000001 -0.000002 -0.000001 
1.465233 110.959412 738.620789 -2.423134 4.833221 -3.989010 0.000000 -0.000010 73.129601 -4.850152 -9.617483 -4.792693 0.000008 -0.000039 165.477417 -1.572292 6.827355 1.509402 -0.000014 -0.000037 183.313766 1.241985 8.053280 -18.059339 -0.000059 -17.836435 138.232666 2.851014 9.201830 9.190027 35.598572 3.890328 149.571472 -17.991869 3.221735 1.295541 103.175438 -0.000030 0.000118 -67.454873 42.274148 53.790677 267.561920 -0.000050 0.000005 -54.349755 36.344577 -80.490726 239.300140 0.000031 0.000033 -10.763669 -10.880169 -34.321697 -35.671307 3.890332 149.571396 11.512246 -7.583357 2.456619 -103.175400 0.000024 0.000111 45.411414 17.274834 -33.267809 -267.562012 0.000008 -0.000025 -104.384395 56.701625 61.938881 -239.300140 0.000051 0.000002 104.196844 94.955530 -170.830941 89.182388 0.000002 0.000034 -13.032949 -12.999144 -32.220352 0.000084 0.000075 -464.167633 22.923892 40.468779 20.549509 -0.000024 0.000041 -372.878479 24.024868 -13.334326 9.348650 0.000022 -133.773590 -57.968567 -0.000004 -0.000001 -0.000000 -89.182388 0.000000 -0.000027 4.274346 -20.397948 40.470397 -0.000013 0.000077 -464.167694 5.447640 38.643499 -37.944624 0.000027 0.000119 -372.878448 -35.034936 -21.655899 -7.268851 -0.000012 -133.773636 -57.968571 -0.000005 0.000001 0.000000 
1.312634 111.183258 738.505005 -2.466739 4.850995 -4.083453 0.000008 -0.000011 73.129539 -4.886778 -9.566003 -4.766911 -0.000000 -0.000031 165.477432 -1.578039 6.811827 1.379422 -0.000014 -0.000025 183.313889 1.258714 8.013207 -18.062355 0.000023 -17.836470 138.232590 2.879807 9.270401 9.389628 35.598560 3.890316 149.571411 -17.933321 3.271774 1.297972 103.175423 -0.000012 -0.000027 -67.413564 42.113539 53.820344 267.561951 -0.000117 0.000037 -54.379808 36.401059 -80.519454 239.300201 -0.000023 0.000123 -10.650554 -10.914513 -34.331860 -35.671303 3.890323 149.571518 11.426233 -7.476109 2.335645 -103.175400 0.000020 0.000079 45.996160 17.541288 -33.713592 -267.561981 0.000016 0.000018 -103.920707 58.174278 61.718894 -239.300156 0.000074 0.000045 105.969620 94.888772 -171.552810 89.182404 0.000001 0.000042 -12.997845 -13.030396 -32.142682 0.000000 0.000098 -464.167664 23.016916 40.480673 20.501318 -0.000046 0.000075 -372.878448 23.984361 -13.272941 9.358560 -0.000017 -133.773590 -57.968567 -0.000001 0.000001 0.000000 -89.182388 0.000010 0.000015 4.402179 -20.450444 40.619579 -0.000059 0.000102 -464.167603 5.678224 38.625498 -38.171383 0.000058 0.000084 -372.878387 -35.230850 -21.699742 -7.321921 -0.000034 -133.773575 -57.968571 -0.000005 0.000001 -0.000000 
1.249617 111.393509 738.342102 -2.512726 4.883296 -4.195205 -0.000002 -0.000005 73.129478 -4.916133 -9.548147 -4.735020 -0.000015 -0.000045 165.477402 -1.581774 6.828185 1.255971 0.000017 -0.000045 183.313797 1.279713 7.998336 -18.028006 -0.000046 -17.836584 138.232620 2.908274 9.276082 9.531793 35.598579 3.890308 149.571396 -17.942069 3.293053 1.323969 103.175423 -0.000030 0.000140 -67.548740 42.077790 54.046522 267.561951 -0.000092 0.000008 -54.107314 36.358647 -80.918515 239.300156 0.000023 0.000105 -10.566756 -11.073208 -34.241661 -35.671299 3.890309 149.571365 11.494875 -7.463695 2.181534 -103.175430 -0.000052 0.000264 47.113248 18.648746 -34.566539 -267.561920 -0.000039 0.000081 -102.523359 59.801790 60.034665 -239.300110 0.000015 -0.000001 114.300115 95.097502 -178.729440 89.182381 0.000003 -0.000053 -13.017436 -13.034793 -32.062213 -0.000061 0.000079 -464.167694 23.173946 40.460043 20.503640 0.000045 0.000083 -372.878418 24.028185 -13.244386 9.272192 -0.000017 -133.773575 -57.968628 -0.000004 -0.000001 0.000001 -89.182381 0.000011 -0.000034 4.504552 -20.547764 40.770967 0.000024 0.000131 -464.167725 5.860751 38.674447 -38.279911 -0.000034 0.000096 -372.878418 -35.258536 -21.728567 -7.316437 0.000003 -133.773560 -57.968567 -0.000001 -0.000001 -0.000002 
1.216311 111.587212 738.149841 -2.544909 4.912499 -4.296249 -0.000000 -0.000004 73.129578 -4.959733 -9.565878 -4.731458 0.000009 -0.000025 165.477402 -1.590557 6.896100 1.150543 -0.000029 -0.000056 183.313614 1.298365 7.955473 -17.977900 0.000062 -17.836512 138.232895 2.933938 9.308930 9.632633 35.598541 3.890307 149.571274 -17.919211 3.291589 1.346551 103.175446 -0.000052 0.000017 -67.467748 41.931986 54.071889 267.562042 -0.000050 -0.000020 -54.208674 36.404198 -80.920325 239.300140 0.000041 0.000235 -10.655193 -11.116141 -34.327503 -35.671310 3.890302 149.571289 11.437936 -7.340414 2.012070 -103.175430 -0.000014 0.000102 47.624372 18.852101 -34.962010 -267.561981 -0.000018 0.000074 -101.618564 61.147788 59.527407 -239.300140 0.000086 -0.000037 117.873164 95.099954 -181.273084 89.182388 0.000011 0.000065 -13.022184 -13.073862 -31.987968 -0.000091 0.000060 -464.167664 23.172703 40.502926 20.501381 -0.000020 0.000090 -372.878296 23.989108 -13.241675 9.324544 0.000035 -133.773621 -57.968567 -0.000003 -0.000002 0.000002 -89.182388 0.000009 -0.000015 4.590222 -20.646793 40.923335 0.000001 0.000073 -464.167694 6.082797 38.712986 -38.444912 -0.000011 0.000053 -372.878387 -35.365241 -21.736927 -7.324709 -0.000032 -133.773621 -57.968571 -0.000004 0.000003 0.000000 
1.123156 111.835518 737.950684 -2.577485 4.945140 -4.377905 0.000002 0.000002 73.129570 -4.995804 -9.538195 -4.677425 0.000029 -0.000046 165.477356 -1.590714 6.914567 0.919913 0.000002 -0.000029 183.313675 1.308215 7.903553 -17.888779 0.000029 -17.836510 138.232758 2.949874 9.359070 9.771513 35.598549 3.890315 149.571228 -17.929440 3.286009 1.409343 103.175438 -0.000008 0.000138 -67.531194 41.841558 54.245304 267.561920 0.000025 -0.000000 -54.006627 36.386334 -81.207288 239.300156 -0.000055 0.000119 -10.724085 -11.165067 -34.280183 -35.671333 3.890312 149.571167 11.373560 -7.203632 1.857421 -103.175468 -0.000016 0.000108 48.339895 19.290916 -35.396216 -267.562042 -0.000016 0.000101 -100.197338 62.545627 58.395918 -239.300140 -0.000103 -0.000021 123.466324 95.267485 -185.751024 89.182396 0.000014 -0.000031 -12.995218 -13.137292 -31.919349 -0.000030 0.000067 -464.167694 23.408117 40.542439 20.364672 -0.000012 0.000064 -372.878387 23.911300 -13.218435 9.268573 0.000008 -133.773621 -57.968571 -0.000002 0.000000 0.000001 -89.182388 0.000007 -0.000038 4.673425 -20.756574 41.044215 -0.000029 0.000069 -464.167633 6.268188 38.771880 -38.579822 0.000012 0.000072 -372.878510 -35.447541 -21.761328 -7.326384 -0.000000 -133.773560 -57.968563 -0.000003 -0.000002 -0.000001 
